Coordinates
version=1
nRows=5
nColumns=63
inDegrees=yes

Units are S.I. units (second, meters, Newtons, ...)
If the header above contains a line with 'inDegrees', this indicates whether rotational values are in degrees (yes) or radians (no).

endheader
time	pelvis_tilt	pelvis_list	pelvis_rotation	pelvis_tx	pelvis_ty	pelvis_tz	hip_flexion_r	hip_adduction_r	hip_rotation_r	knee_angle_r	knee_angle_r_beta	ankle_angle_r	subtalar_angle_r	mtp_angle_r	hip_flexion_l	hip_adduction_l	hip_rotation_l	knee_angle_l	knee_angle_l_beta	ankle_angle_l	subtalar_angle_l	mtp_angle_l	L5_S1_Flex_Ext	L5_S1_Lat_Bending	L5_S1_axial_rotation	L4_L5_Flex_Ext	L4_L5_Lat_Bending	L4_L5_axial_rotation	L3_L4_Flex_Ext	L3_L4_Lat_Bending	L3_L4_axial_rotation	L2_L3_Flex_Ext	L2_L3_Lat_Bending	L2_L3_axial_rotation	L1_L2_Flex_Ext	L1_L2_Lat_Bending	L1_L2_axial_rotation	L1_T12_Flex_Ext	L1_T12_Lat_Bending	L1_T12_axial_rotation	Abs_r3	Abs_r2	Abs_r1	Abs_t1	Abs_t2	neck_flexion	neck_bending	neck_rotation	arm_flex_r	arm_add_r	arm_rot_r	elbow_flex_r	pro_sup_r	wrist_flex_r	wrist_dev_r	arm_flex_l	arm_add_l	arm_rot_l	elbow_flex_l	pro_sup_l	wrist_flex_l	wrist_dev_l
      1.24561404	     -2.09470230	      1.10702025	     93.65689200	      0.14626039	      0.82909678	      0.76292941	      0.78965879	     -2.70264059	    -15.02926109	     11.56250364	      0.20180376	     31.09464995	     18.55297673	      0.00000000	      4.40852289	      1.62947200	      0.41431505	     16.33168624	      0.28504170	     29.80400635	     -4.24473380	      0.00000000	     -0.40397095	      0.24630890	     -0.08280241	     -0.75021445	      0.32759083	     -0.08797756	     -0.66368387	      0.59887545	     -0.08797756	     -0.46169840	      0.59887545	     -0.07245211	     -0.37512742	      0.50227311	     -0.06727696	     -0.23082900	      0.38153248	     -0.06210181	     -2.88552410	      2.78629552	     -0.46052216	      0.00000000	      0.00000000	     26.94138395	      4.47490924	     10.13497753	      6.87556632	    -14.40242778	    109.60614041	      8.46877968	      3.01317844	     -6.25626535	    -12.86073310	      5.93204016	     -7.99312446	    144.32385903	      3.40216394	      9.40838921	     -9.50556543	     -1.46598368
      1.26315789	     -2.21514364	      0.83482268	     93.66188938	      0.14650049	      0.82763257	      0.76490407	      1.35994731	     -2.92080454	    -15.26016330	     11.93866847	      0.20836907	     31.76467625	     18.61934832	      0.00000000	      5.08571555	      1.71910044	      0.12927164	     16.89221359	      0.29482475	     30.39817659	     -3.65611239	      0.00000000	     -0.39732405	      0.23750009	     -0.09086306	     -0.73787049	      0.31587512	     -0.09654200	     -0.65276368	      0.57745772	     -0.09654200	     -0.45410165	      0.57745772	     -0.07950517	     -0.36895511	      0.48431018	     -0.07382623	     -0.22703096	      0.36788764	     -0.06814729	     -2.83804594	      2.68664852	     -0.50535305	      0.00000000	      0.00000000	     27.18417122	      4.28898252	     10.20506718	      6.90610355	    -13.79022505	    110.22226637	      8.60767054	      3.09722386	     -6.79888452	    -12.97536352	      6.00041917	     -7.59729766	    143.70992081	      3.77257740	      9.25263678	     -9.00551844	     -0.51658666
      1.28070175	     -2.14974136	      0.58783298	     93.86082559	      0.14675419	      0.82657097	      0.76701981	      1.80590118	     -2.90927838	    -15.76239654	     12.14265061	      0.21192923	     32.12598779	     18.70134089	      0.00000000	      5.81112147	      1.40186109	     -1.39666231	     17.61328882	      0.30740988	     31.38342652	     -0.99515677	      0.00000000	     -0.39086878	      0.24377740	     -0.13852567	     -0.72588241	      0.32422395	     -0.14718353	     -0.64215832	      0.59272038	     -0.14718353	     -0.44672393	      0.59272038	     -0.12120996	     -0.36296075	      0.49711088	     -0.11255211	     -0.22334242	      0.37761120	     -0.10389426	     -2.79193660	      2.75765874	     -0.77043824	      0.00000000	      0.00000000	     27.27572069	      4.14661858	     10.19115417	      7.26895090	    -13.03405554	    112.97824415	      8.13494808	      2.57304623	     -6.90681748	    -12.86599103	      6.05046003	     -7.51154589	    137.71162819	      4.47092622	      7.86471230	     -8.12766512	     -0.52163373
      1.29824561	     -2.24616617	      0.28614709	     93.96030891	      0.14709195	      0.82582605	      0.76902764	      2.34764520	     -3.09701403	    -16.21404690	     12.47023065	      0.21764658	     32.40510257	     18.76376871	      0.00000000	      6.45208976	      1.47087583	     -1.51019454	     18.06573513	      0.31530656	     31.51446265	     -0.70720094	      0.00000000	     -0.37066502	      0.22691024	     -0.11599524	     -0.68836202	      0.30179062	     -0.12324494	     -0.60896557	      0.55170957	     -0.12324494	     -0.42363306	      0.55170957	     -0.10149584	     -0.34419954	      0.46271537	     -0.09424613	     -0.21179799	      0.35148397	     -0.08699643	     -2.64762320	      2.56685406	     -0.64513073	      0.00000000	      0.00000000	     27.31567109	      3.80370712	      9.63182804	      7.63942426	    -12.21238102	    116.41553043	      7.22859410	      2.25126172	     -6.95348996	    -12.60735153	      6.38585075	     -7.51730202	    134.22356404	      4.96034947	      8.02312485	     -7.83253237	     -0.19932084
      1.31578947	     -2.43706243	      0.06332495	     94.10616430	      0.14747509	      0.82547072	      0.77067487	      2.73218494	     -3.35831470	    -16.66933443	     12.72363775	      0.22206937	     32.51729875	     18.78998388	      0.00000000	      6.89937053	      1.76191731	     -0.75871561	     18.34405789	      0.32016421	     31.19804618	     -1.77568839	      0.00000000	     -0.35977599	      0.19201599	     -0.08305836	     -0.66813999	      0.25538126	     -0.08824951	     -0.59107597	      0.46686767	     -0.08824951	     -0.41118798	      0.46686767	     -0.07267606	     -0.33408798	      0.39155900	     -0.06748492	     -0.20557600	      0.29743276	     -0.06229377	     -2.56984391	      2.17212324	     -0.46194567	      0.00000000	      0.00000000	     27.35476120	      3.82307211	      9.11205551	      8.05728454	    -11.36960875	    120.98309929	      5.94102608	      2.04756045	     -6.85617185	    -12.09173333	      6.72204072	     -7.69835797	    129.92700796	      5.39129426	     10.50086887	     -8.06035303	     -0.10071787
